<svg width="92" height="24" viewBox="0 0 92 24" fill="none" xmlns="http://www.w3.org/2000/svg">
<path d="M7.62695 3.78125V18H4.70703V3.78125H7.62695ZM12.002 3.78125V6.07617H0.400391V3.78125H12.002ZM17.4414 18.1953C16.6211 18.1953 15.8854 18.0651 15.2344 17.8047C14.5833 17.5378 14.0299 17.1699 13.5742 16.7012C13.125 16.2324 12.7799 15.6888 12.5391 15.0703C12.2982 14.4453 12.1777 13.7812 12.1777 13.0781V12.6875C12.1777 11.8867 12.2917 11.1543 12.5195 10.4902C12.7474 9.82617 13.0729 9.25 13.4961 8.76172C13.9258 8.27344 14.4466 7.89909 15.0586 7.63867C15.6706 7.37174 16.3607 7.23828 17.1289 7.23828C17.8776 7.23828 18.5417 7.36198 19.1211 7.60938C19.7005 7.85677 20.1855 8.20833 20.5762 8.66406C20.9733 9.11979 21.2728 9.66667 21.4746 10.3047C21.6764 10.9362 21.7773 11.6393 21.7773 12.4141V13.5859H13.3789V11.7109H19.0137V11.4961C19.0137 11.1055 18.9421 10.7572 18.7988 10.4512C18.6621 10.1387 18.4538 9.89128 18.1738 9.70898C17.8939 9.52669 17.5358 9.43555 17.0996 9.43555C16.7285 9.43555 16.4095 9.51693 16.1426 9.67969C15.8757 9.84245 15.6576 10.0703 15.4883 10.3633C15.3255 10.6562 15.2018 11.0013 15.1172 11.3984C15.0391 11.7891 15 12.2188 15 12.6875V13.0781C15 13.5013 15.0586 13.8919 15.1758 14.25C15.2995 14.6081 15.472 14.9173 15.6934 15.1777C15.9212 15.4382 16.1947 15.64 16.5137 15.7832C16.8392 15.9264 17.207 15.998 17.6172 15.998C18.125 15.998 18.597 15.9004 19.0332 15.7051C19.4759 15.5033 19.8568 15.2005 20.1758 14.7969L21.543 16.2812C21.3216 16.6003 21.0189 16.9062 20.6348 17.1992C20.2572 17.4922 19.8014 17.7331 19.2676 17.9219C18.7337 18.1042 18.125 18.1953 17.4414 18.1953ZM26.3477 3V18H23.5254V3H26.3477ZM33.5352 18.1953C32.7148 18.1953 31.9792 18.0651 31.3281 17.8047C30.6771 17.5378 30.1237 17.1699 29.668 16.7012C29.2188 16.2324 28.8737 15.6888 28.6328 15.0703C28.3919 14.4453 28.2715 13.7812 28.2715 13.0781V12.6875C28.2715 11.8867 28.3854 11.1543 28.6133 10.4902C28.8411 9.82617 29.1667 9.25 29.5898 8.76172C30.0195 8.27344 30.5404 7.89909 31.1523 7.63867C31.7643 7.37174 32.4544 7.23828 33.2227 7.23828C33.9714 7.23828 34.6354 7.36198 35.2148 7.60938C35.7943 7.85677 36.2793 8.20833 36.6699 8.66406C37.0671 9.11979 37.3665 9.66667 37.5684 10.3047C37.7702 10.9362 37.8711 11.6393 37.8711 12.4141V13.5859H29.4727V11.7109H35.1074V11.4961C35.1074 11.1055 35.0358 10.7572 34.8926 10.4512C34.7559 10.1387 34.5475 9.89128 34.2676 9.70898C33.9876 9.52669 33.6296 9.43555 33.1934 9.43555C32.8223 9.43555 32.5033 9.51693 32.2363 9.67969C31.9694 9.84245 31.7513 10.0703 31.582 10.3633C31.4193 10.6562 31.2956 11.0013 31.2109 11.3984C31.1328 11.7891 31.0938 12.2188 31.0938 12.6875V13.0781C31.0938 13.5013 31.1523 13.8919 31.2695 14.25C31.3932 14.6081 31.5658 14.9173 31.7871 15.1777C32.015 15.4382 32.2884 15.64 32.6074 15.7832C32.9329 15.9264 33.3008 15.998 33.7109 15.998C34.2188 15.998 34.6908 15.9004 35.127 15.7051C35.5697 15.5033 35.9505 15.2005 36.2695 14.7969L37.6367 16.2812C37.4154 16.6003 37.1126 16.9062 36.7285 17.1992C36.3509 17.4922 35.8952 17.7331 35.3613 17.9219C34.8275 18.1042 34.2188 18.1953 33.5352 18.1953ZM46.1621 7.43359H48.7109V17.6484C48.7109 18.612 48.4961 19.429 48.0664 20.0996C47.6432 20.7767 47.0508 21.2878 46.2891 21.6328C45.5273 21.9844 44.6419 22.1602 43.6328 22.1602C43.1901 22.1602 42.7214 22.1016 42.2266 21.9844C41.7383 21.8672 41.2695 21.6849 40.8203 21.4375C40.3776 21.1901 40.0065 20.8776 39.707 20.5L40.9473 18.8398C41.2728 19.2174 41.6504 19.5104 42.0801 19.7188C42.5098 19.9336 42.985 20.041 43.5059 20.041C44.0137 20.041 44.4434 19.9466 44.7949 19.7578C45.1465 19.5755 45.4167 19.3053 45.6055 18.9473C45.7943 18.5957 45.8887 18.1693 45.8887 17.668V9.875L46.1621 7.43359ZM39.0527 12.8438V12.6387C39.0527 11.8314 39.1504 11.099 39.3457 10.4414C39.5475 9.77734 39.8307 9.20768 40.1953 8.73242C40.5664 8.25716 41.0156 7.88932 41.543 7.62891C42.0703 7.36849 42.666 7.23828 43.3301 7.23828C44.0332 7.23828 44.6224 7.36849 45.0977 7.62891C45.5729 7.88932 45.9635 8.26042 46.2695 8.74219C46.5755 9.21745 46.8132 9.7806 46.9824 10.4316C47.1582 11.0762 47.2949 11.7826 47.3926 12.5508V13C47.2949 13.7357 47.1484 14.4193 46.9531 15.0508C46.7578 15.6823 46.5007 16.2357 46.1816 16.7109C45.8626 17.1797 45.4655 17.5443 44.9902 17.8047C44.5215 18.0651 43.9616 18.1953 43.3105 18.1953C42.6595 18.1953 42.0703 18.0618 41.543 17.7949C41.0221 17.528 40.5762 17.1536 40.2051 16.6719C39.834 16.1901 39.5475 15.6237 39.3457 14.9727C39.1504 14.3216 39.0527 13.612 39.0527 12.8438ZM41.8652 12.6387V12.8438C41.8652 13.2799 41.9076 13.6868 41.9922 14.0645C42.0768 14.4421 42.207 14.7773 42.3828 15.0703C42.5651 15.3568 42.7897 15.5814 43.0566 15.7441C43.3301 15.9004 43.6523 15.9785 44.0234 15.9785C44.5378 15.9785 44.9577 15.8711 45.2832 15.6562C45.6087 15.4349 45.8529 15.1322 46.0156 14.748C46.1784 14.3639 46.2728 13.9212 46.2988 13.4199V12.1406C46.2858 11.7305 46.2305 11.3626 46.1328 11.0371C46.0352 10.7051 45.8984 10.4219 45.7227 10.1875C45.5469 9.95312 45.319 9.77083 45.0391 9.64062C44.7591 9.51042 44.4271 9.44531 44.043 9.44531C43.6719 9.44531 43.3496 9.52995 43.0762 9.69922C42.8092 9.86198 42.5846 10.0866 42.4023 10.373C42.2266 10.6595 42.0931 10.998 42.002 11.3887C41.9108 11.7728 41.8652 12.1895 41.8652 12.6387ZM53.7109 9.73828V18H50.8984V7.43359H53.5449L53.7109 9.73828ZM56.8945 7.36523L56.8457 9.97266C56.709 9.95312 56.543 9.93685 56.3477 9.92383C56.1589 9.9043 55.9863 9.89453 55.8301 9.89453C55.4329 9.89453 55.0879 9.94661 54.7949 10.0508C54.5085 10.1484 54.2676 10.2949 54.0723 10.4902C53.8835 10.6855 53.7402 10.9232 53.6426 11.2031C53.5514 11.4831 53.4993 11.8021 53.4863 12.1602L52.9199 11.9844C52.9199 11.3008 52.9883 10.6725 53.125 10.0996C53.2617 9.52018 53.4603 9.01562 53.7207 8.58594C53.9876 8.15625 54.3132 7.82422 54.6973 7.58984C55.0814 7.35547 55.5208 7.23828 56.0156 7.23828C56.1719 7.23828 56.3314 7.2513 56.4941 7.27734C56.6569 7.29688 56.7904 7.32617 56.8945 7.36523ZM63.5938 15.6172V10.9102C63.5938 10.5716 63.5384 10.2819 63.4277 10.041C63.3171 9.79362 63.1445 9.60156 62.9102 9.46484C62.6823 9.32812 62.3861 9.25977 62.0215 9.25977C61.709 9.25977 61.4388 9.3151 61.2109 9.42578C60.9831 9.52995 60.8073 9.68294 60.6836 9.88477C60.5599 10.0801 60.498 10.3112 60.498 10.5781H57.6855C57.6855 10.1289 57.7897 9.70247 57.998 9.29883C58.2064 8.89518 58.5091 8.54036 58.9062 8.23438C59.3034 7.92188 59.7754 7.67773 60.3223 7.50195C60.8757 7.32617 61.4941 7.23828 62.1777 7.23828C62.998 7.23828 63.7272 7.375 64.3652 7.64844C65.0033 7.92188 65.5046 8.33203 65.8691 8.87891C66.2402 9.42578 66.4258 10.1094 66.4258 10.9297V15.4512C66.4258 16.0306 66.4616 16.5059 66.5332 16.877C66.6048 17.2415 66.709 17.5605 66.8457 17.834V18H64.0039C63.8672 17.7135 63.763 17.3555 63.6914 16.9258C63.6263 16.4896 63.5938 16.0534 63.5938 15.6172ZM63.9648 11.5645L63.9844 13.1562H62.4121C62.041 13.1562 61.7188 13.1986 61.4453 13.2832C61.1719 13.3678 60.9473 13.4883 60.7715 13.6445C60.5957 13.7943 60.4655 13.9701 60.3809 14.1719C60.3027 14.3737 60.2637 14.5951 60.2637 14.8359C60.2637 15.0768 60.319 15.2949 60.4297 15.4902C60.5404 15.679 60.6999 15.8288 60.9082 15.9395C61.1165 16.0436 61.3607 16.0957 61.6406 16.0957C62.0638 16.0957 62.4316 16.0111 62.7441 15.8418C63.0566 15.6725 63.2975 15.4642 63.4668 15.2168C63.6426 14.9694 63.7337 14.735 63.7402 14.5137L64.4824 15.7051C64.3783 15.972 64.235 16.2487 64.0527 16.5352C63.877 16.8216 63.6523 17.0918 63.3789 17.3457C63.1055 17.5931 62.7767 17.7982 62.3926 17.9609C62.0085 18.1172 61.5527 18.1953 61.0254 18.1953C60.3548 18.1953 59.7461 18.0618 59.1992 17.7949C58.6589 17.5215 58.2292 17.1471 57.9102 16.6719C57.5977 16.1901 57.4414 15.6432 57.4414 15.0312C57.4414 14.4779 57.5456 13.9863 57.7539 13.5566C57.9622 13.127 58.2682 12.7656 58.6719 12.4727C59.082 12.1732 59.5931 11.9486 60.2051 11.7988C60.8171 11.6426 61.5267 11.5645 62.334 11.5645H63.9648ZM71.4062 9.46484V22.0625H68.5938V7.43359H71.2012L71.4062 9.46484ZM78.0957 12.5996V12.8047C78.0957 13.5729 78.0046 14.2858 77.8223 14.9434C77.6465 15.6009 77.3861 16.1738 77.041 16.6621C76.696 17.1439 76.2663 17.5215 75.752 17.7949C75.2441 18.0618 74.6582 18.1953 73.9941 18.1953C73.3496 18.1953 72.7897 18.0651 72.3145 17.8047C71.8392 17.5443 71.4388 17.1797 71.1133 16.7109C70.7943 16.2357 70.5371 15.6855 70.3418 15.0605C70.1465 14.4355 69.9967 13.765 69.8926 13.0488V12.5117C69.9967 11.7435 70.1465 11.0404 70.3418 10.4023C70.5371 9.75781 70.7943 9.20117 71.1133 8.73242C71.4388 8.25716 71.8359 7.88932 72.3047 7.62891C72.7799 7.36849 73.3366 7.23828 73.9746 7.23828C74.6452 7.23828 75.2344 7.36523 75.7422 7.61914C76.2565 7.87305 76.6862 8.23763 77.0312 8.71289C77.3828 9.18815 77.6465 9.75456 77.8223 10.4121C78.0046 11.0697 78.0957 11.7988 78.0957 12.5996ZM75.2734 12.8047V12.5996C75.2734 12.1504 75.2344 11.737 75.1562 11.3594C75.0846 10.9753 74.9674 10.64 74.8047 10.3535C74.6484 10.0671 74.4401 9.8457 74.1797 9.68945C73.9258 9.52669 73.6165 9.44531 73.252 9.44531C72.8678 9.44531 72.5391 9.50716 72.2656 9.63086C71.9987 9.75456 71.7806 9.93359 71.6113 10.168C71.4421 10.4023 71.3151 10.6823 71.2305 11.0078C71.1458 11.3333 71.0938 11.7012 71.0742 12.1113V13.4688C71.1068 13.9505 71.1979 14.3835 71.3477 14.7676C71.4974 15.1452 71.7285 15.4447 72.041 15.666C72.3535 15.8874 72.7637 15.998 73.2715 15.998C73.6426 15.998 73.9551 15.9167 74.209 15.7539C74.4629 15.5846 74.668 15.3535 74.8242 15.0605C74.987 14.7676 75.1009 14.429 75.166 14.0449C75.2376 13.6608 75.2734 13.2474 75.2734 12.8047ZM82.5879 3V18H79.7754V3H82.5879ZM82.1875 12.3457H81.416C81.4225 11.61 81.5202 10.9329 81.709 10.3145C81.8978 9.68945 82.168 9.14909 82.5195 8.69336C82.8711 8.23112 83.291 7.87305 83.7793 7.61914C84.2741 7.36523 84.821 7.23828 85.4199 7.23828C85.9408 7.23828 86.4128 7.31315 86.8359 7.46289C87.2656 7.60612 87.6335 7.84049 87.9395 8.16602C88.252 8.48503 88.4928 8.90495 88.6621 9.42578C88.8314 9.94661 88.916 10.5781 88.916 11.3203V18H86.084V11.3008C86.084 10.832 86.0156 10.4642 85.8789 10.1973C85.7487 9.92383 85.5566 9.73177 85.3027 9.62109C85.0553 9.50391 84.7493 9.44531 84.3848 9.44531C83.9811 9.44531 83.6361 9.52018 83.3496 9.66992C83.0697 9.81966 82.8451 10.028 82.6758 10.2949C82.5065 10.5553 82.3828 10.8613 82.3047 11.2129C82.2266 11.5645 82.1875 11.9421 82.1875 12.3457Z" fill="#FF0043"/>
</svg>
