<svg width="94" height="46" viewBox="0 0 94 46" fill="none" xmlns="http://www.w3.org/2000/svg">
<g clip-path="url(#clip0_0_31)">
<g filter="url(#filter0_d_0_31)">
<rect width="94" height="46" rx="23" fill="#FF0043"/>
</g>
<path d="M25.3389 18.0469V28H23.2949V18.0469H25.3389ZM28.4014 18.0469V19.6533H20.2803V18.0469H28.4014ZM30.9375 22.2168V28H28.9688V20.6035H30.8213L30.9375 22.2168ZM33.166 20.5557L33.1318 22.3809C33.0361 22.3672 32.9199 22.3558 32.7832 22.3467C32.651 22.333 32.5303 22.3262 32.4209 22.3262C32.1429 22.3262 31.9014 22.3626 31.6963 22.4355C31.4958 22.5039 31.3271 22.6064 31.1904 22.7432C31.0583 22.8799 30.958 23.0462 30.8896 23.2422C30.8258 23.4382 30.7894 23.6615 30.7803 23.9121L30.3838 23.7891C30.3838 23.3105 30.4316 22.8708 30.5273 22.4697C30.623 22.0641 30.762 21.7109 30.9443 21.4102C31.1312 21.1094 31.359 20.877 31.6279 20.7129C31.8968 20.5488 32.2044 20.4668 32.5508 20.4668C32.6602 20.4668 32.7718 20.4759 32.8857 20.4941C32.9997 20.5078 33.0931 20.5283 33.166 20.5557ZM36.4131 27.166L38.375 20.6035H40.4873L37.5137 29.1143C37.4499 29.3011 37.3633 29.5016 37.2539 29.7158C37.1491 29.93 37.0055 30.1328 36.8232 30.3242C36.6455 30.5202 36.4199 30.6797 36.1465 30.8027C35.8776 30.9258 35.5472 30.9873 35.1553 30.9873C34.9684 30.9873 34.8158 30.9759 34.6973 30.9531C34.5788 30.9303 34.4375 30.8984 34.2734 30.8574V29.415C34.3236 29.415 34.376 29.415 34.4307 29.415C34.4854 29.4196 34.5378 29.4219 34.5879 29.4219C34.8477 29.4219 35.0596 29.3923 35.2236 29.333C35.3877 29.2738 35.5199 29.1826 35.6201 29.0596C35.7204 28.9411 35.8001 28.7861 35.8594 28.5947L36.4131 27.166ZM35.5928 20.6035L37.1992 25.9629L37.4795 28.0479L36.1396 28.1914L33.4805 20.6035H35.5928ZM48.7793 23.6318H46.2227L46.209 22.2236H48.3555C48.7337 22.2236 49.0436 22.1758 49.2852 22.0801C49.5267 21.9798 49.7067 21.8363 49.8252 21.6494C49.9482 21.458 50.0098 21.2256 50.0098 20.9521C50.0098 20.6423 49.9505 20.3916 49.832 20.2002C49.7181 20.0088 49.5381 19.8698 49.292 19.7832C49.0505 19.6966 48.7383 19.6533 48.3555 19.6533H46.9336V28H44.8828V18.0469H48.3555C48.9342 18.0469 49.4515 18.1016 49.9072 18.2109C50.3675 18.3203 50.7572 18.4867 51.0762 18.71C51.3952 18.9333 51.639 19.2158 51.8076 19.5576C51.9762 19.8949 52.0605 20.2959 52.0605 20.7607C52.0605 21.1709 51.9671 21.5492 51.7803 21.8955C51.598 22.2419 51.3086 22.5244 50.9121 22.7432C50.5202 22.9619 50.0075 23.0827 49.374 23.1055L48.7793 23.6318ZM48.6904 28H45.6621L46.4619 26.4004H48.6904C49.0505 26.4004 49.3444 26.3434 49.5723 26.2295C49.8001 26.111 49.9688 25.9515 50.0781 25.751C50.1875 25.5505 50.2422 25.3203 50.2422 25.0605C50.2422 24.7689 50.1921 24.516 50.0918 24.3018C49.9961 24.0876 49.8411 23.9235 49.627 23.8096C49.4128 23.6911 49.1302 23.6318 48.7793 23.6318H46.8037L46.8174 22.2236H49.2783L49.75 22.7773C50.3561 22.7682 50.8438 22.8753 51.2129 23.0986C51.5866 23.3174 51.8577 23.6022 52.0264 23.9531C52.1995 24.304 52.2861 24.68 52.2861 25.0811C52.2861 25.7191 52.1471 26.2568 51.8691 26.6943C51.5911 27.1273 51.1833 27.4531 50.6455 27.6719C50.1123 27.8906 49.4606 28 48.6904 28ZM57.1055 28.1367C56.5312 28.1367 56.0163 28.0456 55.5605 27.8633C55.1048 27.6764 54.7174 27.4189 54.3984 27.0908C54.084 26.7627 53.8424 26.3822 53.6738 25.9492C53.5052 25.5117 53.4209 25.0469 53.4209 24.5547V24.2812C53.4209 23.7207 53.5007 23.208 53.6602 22.7432C53.8197 22.2783 54.0475 21.875 54.3438 21.5332C54.6445 21.1914 55.0091 20.9294 55.4375 20.7471C55.8659 20.5602 56.349 20.4668 56.8867 20.4668C57.4108 20.4668 57.8757 20.5534 58.2812 20.7266C58.6868 20.8997 59.0264 21.1458 59.2998 21.4648C59.5778 21.7839 59.7874 22.1667 59.9287 22.6133C60.07 23.0553 60.1406 23.5475 60.1406 24.0898V24.9102H54.2617V23.5977H58.2061V23.4473C58.2061 23.1738 58.1559 22.93 58.0557 22.7158C57.96 22.4971 57.8141 22.3239 57.6182 22.1963C57.4222 22.0687 57.1715 22.0049 56.8662 22.0049C56.6064 22.0049 56.3831 22.0618 56.1963 22.1758C56.0094 22.2897 55.8568 22.4492 55.7383 22.6543C55.6243 22.8594 55.5378 23.1009 55.4785 23.3789C55.4238 23.6523 55.3965 23.9531 55.3965 24.2812V24.5547C55.3965 24.8509 55.4375 25.1243 55.5195 25.375C55.6061 25.6257 55.7269 25.8421 55.8818 26.0244C56.0413 26.2067 56.2327 26.348 56.4561 26.4482C56.6839 26.5485 56.9414 26.5986 57.2285 26.5986C57.584 26.5986 57.9144 26.5303 58.2197 26.3936C58.5296 26.2523 58.7962 26.0404 59.0195 25.7578L59.9766 26.7969C59.8216 27.0202 59.6097 27.2344 59.3408 27.4395C59.0765 27.6445 58.7575 27.8132 58.3838 27.9453C58.0101 28.0729 57.584 28.1367 57.1055 28.1367ZM64.8848 20.6035V21.998H60.5781V20.6035H64.8848ZM61.6445 18.7783H63.6133V25.7715C63.6133 25.9857 63.6406 26.1497 63.6953 26.2637C63.7546 26.3776 63.8411 26.4574 63.9551 26.5029C64.069 26.5439 64.2126 26.5645 64.3857 26.5645C64.5088 26.5645 64.6182 26.5599 64.7139 26.5508C64.8141 26.5371 64.8984 26.5234 64.9668 26.5098L64.9736 27.959C64.805 28.0137 64.6227 28.057 64.4268 28.0889C64.2308 28.1208 64.0143 28.1367 63.7773 28.1367C63.3444 28.1367 62.9661 28.0661 62.6426 27.9248C62.3236 27.779 62.0775 27.5465 61.9043 27.2275C61.7311 26.9085 61.6445 26.4893 61.6445 25.9697V18.7783ZM69.998 26.332V23.0371C69.998 22.8001 69.9593 22.5973 69.8818 22.4287C69.8044 22.2555 69.6836 22.1211 69.5195 22.0254C69.36 21.9297 69.1527 21.8818 68.8975 21.8818C68.6787 21.8818 68.4896 21.9206 68.3301 21.998C68.1706 22.071 68.0475 22.1781 67.9609 22.3193C67.8743 22.4561 67.8311 22.6178 67.8311 22.8047H65.8623C65.8623 22.4902 65.9352 22.1917 66.0811 21.9092C66.2269 21.6266 66.4388 21.3783 66.7168 21.1641C66.9948 20.9453 67.3252 20.7744 67.708 20.6514C68.0954 20.5283 68.5283 20.4668 69.0068 20.4668C69.5811 20.4668 70.0915 20.5625 70.5381 20.7539C70.9847 20.9453 71.3356 21.2324 71.5908 21.6152C71.8506 21.998 71.9805 22.4766 71.9805 23.0508V26.2158C71.9805 26.6214 72.0055 26.9541 72.0557 27.2139C72.1058 27.4691 72.1787 27.6924 72.2744 27.8838V28H70.2852C70.1895 27.7995 70.1165 27.5488 70.0664 27.248C70.0208 26.9427 69.998 26.6374 69.998 26.332ZM70.2578 23.4951L70.2715 24.6094H69.1709C68.9111 24.6094 68.6855 24.639 68.4941 24.6982C68.3027 24.7575 68.1455 24.8418 68.0225 24.9512C67.8994 25.056 67.8083 25.179 67.749 25.3203C67.6943 25.4616 67.667 25.6165 67.667 25.7852C67.667 25.9538 67.7057 26.1064 67.7832 26.2432C67.8607 26.3753 67.9723 26.4801 68.1182 26.5576C68.264 26.6305 68.4349 26.667 68.6309 26.667C68.9271 26.667 69.1846 26.6077 69.4033 26.4893C69.6221 26.3708 69.7907 26.2249 69.9092 26.0518C70.0322 25.8786 70.096 25.7145 70.1006 25.5596L70.6201 26.3936C70.5472 26.5804 70.4469 26.7741 70.3193 26.9746C70.1963 27.1751 70.0391 27.3643 69.8477 27.542C69.6562 27.7152 69.4261 27.8587 69.1572 27.9727C68.8883 28.082 68.5693 28.1367 68.2002 28.1367C67.7308 28.1367 67.3047 28.0433 66.9219 27.8564C66.5436 27.665 66.2428 27.403 66.0195 27.0703C65.8008 26.7331 65.6914 26.3503 65.6914 25.9219C65.6914 25.5345 65.7643 25.1904 65.9102 24.8896C66.056 24.5889 66.2702 24.3359 66.5527 24.1309C66.8398 23.9212 67.1976 23.764 67.626 23.6592C68.0544 23.5498 68.5511 23.4951 69.1162 23.4951H70.2578Z" fill="white"/>
</g>
<defs>
<filter id="filter0_d_0_31" x="-50" y="-45" width="194" height="146" filterUnits="userSpaceOnUse" color-interpolation-filters="sRGB">
<feFlood flood-opacity="0" result="BackgroundImageFix"/>
<feColorMatrix in="SourceAlpha" type="matrix" values="0 0 0 0 0 0 0 0 0 0 0 0 0 0 0 0 0 0 127 0" result="hardAlpha"/>
<feOffset dy="5"/>
<feGaussianBlur stdDeviation="25"/>
<feColorMatrix type="matrix" values="0 0 0 0 1 0 0 0 0 0 0 0 0 0 0.262745 0 0 0 0.1 0"/>
<feBlend mode="normal" in2="BackgroundImageFix" result="effect1_dropShadow_0_31"/>
<feBlend mode="normal" in="SourceGraphic" in2="effect1_dropShadow_0_31" result="shape"/>
</filter>
<clipPath id="clip0_0_31">
<rect width="94" height="46" fill="white"/>
</clipPath>
</defs>
</svg>
